<?xml version="1.0" encoding="UTF-8" standalone="no"?> <svg height="408pt" viewBox="-47 0 408 408.55175" width="408pt" xmlns="http://www.w3.org/2000/svg"><path d="m92.507812 258.070312c-9.582031 14.988282-5.203124 34.90625 9.785157 44.492188 14.988281 9.582031 34.90625 5.203125 44.488281-9.785156 9.585938-14.984375 5.207031-34.902344-9.777344-44.488282-14.992187-9.566406-34.898437-5.191406-44.496094 9.78125zm45.839844 29.339844c-6.613281 10.324219-20.34375 13.335938-30.667968 6.726563-10.328126-6.613281-13.339844-20.339844-6.734376-30.667969 6.609376-10.328125 20.335938-13.34375 30.664063-6.742188 10.320313 6.625 13.335937 20.347657 6.738281 30.683594zm0 0"/><path d="m307.210938 30.867188-44.054688-28.207032c-7.054688-4.539062-16.378906-3.152344-21.808594 3.242188-5.429687 6.394531-5.28125 15.820312.339844 22.046875l-90.902344 117.136719c-4.480468 5.738281-12.042968 8.109374-19 5.957031-11.292968-3.507813-23.542968.953125-29.9375 10.90625l-97.328125 152.058593c-8.011719 12.550782-4.355469 29.222657 8.179688 37.265626l82.859375 53.015624c4.320312 2.78125 9.351562 4.257813 14.488281 4.261719 1.964844 0 3.921875-.214843 5.839844-.636719 6.988281-1.511718 13.082031-5.757812 16.925781-11.785156l48.449219-75.679687c1.003906-1.507813 1.113281-3.433594.292969-5.042969-.824219-1.609375-2.449219-2.652344-4.253907-2.722656-1.804687-.074219-3.507812.832031-4.457031 2.371094l-24.492188 38.265624-97.019531-62.09375c-1.503906-1-3.433593-1.109374-5.042969-.289062-1.609374.820312-2.648437 2.445312-2.722656 4.253906-.074218 1.804688.835938 3.507813 2.371094 4.457032l97.023438 62.09375-18.550782 28.992187c-5.054687 7.898437-15.554687 10.203125-23.449218 5.148437l-82.875-53.03125c-7.886719-5.058593-10.191407-15.550781-5.148438-23.453124l78.363281-122.429688 96.710938 61.894531c2.320312 1.429688 5.363281.738281 6.832031-1.558593 1.472656-2.296876.832031-5.351563-1.441406-6.859376l-96.714844-61.902343 13.578125-21.199219c3.957031-6.167969 11.546875-8.9375 18.546875-6.769531 10.9375 3.378906 22.824219-.347657 29.878906-9.367188l91.035156-117.320312 6.714844 4.300781c2.328125 1.488281 5.421875.808594 6.910156-1.515625 1.488282-2.328125.808594-5.417969-1.515624-6.90625l-11.375-7.28125c-2.945313-2.097656-3.726563-6.132813-1.777344-9.175781 1.953125-3.042969 5.945312-4.019532 9.078125-2.222656l44.074219 28.210937c2.308593 1.472656 3.503906 4.199219 3.019531 6.898437-.480469 2.699219-2.542969 4.839844-5.21875 5.425782-1.757813.386718-3.597657.050781-5.105469-.933594l-17.347656-11.105469c-2.324219-1.429687-5.363282-.734375-6.835938 1.5625-1.46875 2.296875-.828125 5.347657 1.445313 6.859375l12.6875 8.125-68.390625 131.816406c-5.242188 10.179688-3.652344 22.539063 4 31.058594 4.902344 5.441406 5.570312 13.484375 1.632812 19.660156l-39.214844 61.292969c-1 1.503907-1.113281 3.429688-.292968 5.039063.824218 1.609375 2.449218 2.652344 4.253906 2.722656 1.804688.074219 3.511719-.832031 4.457031-2.371094l39.230469-61.292968c6.363281-9.972657 5.28125-22.972657-2.640625-31.757813-4.867187-5.417969-5.878906-13.277344-2.546875-19.75l68.242188-131.535156c1.59375.503906 3.257812.761719 4.929687.769531 1.21875-.003906 2.4375-.136719 3.628906-.402344 6.628907-1.453125 11.726563-6.757812 12.921875-13.4375 1.191406-6.679687-1.761718-13.417968-7.476562-17.074218zm0 0"/><path d="m186.117188 133.617188-14.617188 21.164062c-1.570312 2.269531-1 5.386719 1.269531 6.953125 2.273438 1.570313 5.386719 1 6.957031-1.269531l14.621094-21.164063c1.570313-2.273437 1-5.386719-1.273437-6.957031-2.269531-1.570312-5.386719-1-6.957031 1.273438zm0 0"/><path d="m199.019531 128.726562c1.644531.003907 3.183594-.804687 4.117188-2.160156l1.914062-2.773437c1.570313-2.277344.996094-5.394531-1.28125-6.960938-2.273437-1.570312-5.390625-.996093-6.957031 1.28125l-1.917969 2.773438c-1.054687 1.53125-1.175781 3.515625-.3125 5.160156.859375 1.648437 2.5625 2.679687 4.421875 2.679687zm0 0"/></svg>